PathFileType	4	(X/Y/Z)	C:/Users/opensim2020/Desktop/walking_exp_matlab/subject03_walking12_straight_04.trc																																																																																																																																														
DataRate	CameraRate	NumFrames	NumMarkers	Units	OrigDataRate	OrigDataStartFrame	OrigNumFrames																																																																																																																																										
100	100	5	48	mm	100	2322	202																																																																																																																																										
Frame#	Time	LFHD			RFHD			LBHD			RBHD			C7			T10			CLAV			STRN			RBAK			LSHO			LUPA			LELB			LFRM			LWRA			LWRB			LFIN			RSHO			RUPA			RELB			RFRM			RWRA			RWRB			RFIN			LASI			RASI			LPSI			RPSI			LTHI			LKNE			LTIB			LANK			LHEE			LTOE			RTHI			RKNE			RTIB			RANK			RHEE			RTOE			*39			*40			*41			*42			*43			*44			*45			*46			*47		
		X1	Y1	Z1	X2	Y2	Z2	X3	Y3	Z3	X4	Y4	Z4	X5	Y5	Z5	X6	Y6	Z6	X7	Y7	Z7	X8	Y8	Z8	X9	Y9	Z9	X10	Y10	Z10	X11	Y11	Z11	X12	Y12	Z12	X13	Y13	Z13	X14	Y14	Z14	X15	Y15	Z15	X16	Y16	Z16	X17	Y17	Z17	X18	Y18	Z18	X19	Y19	Z19	X20	Y20	Z20	X21	Y21	Z21	X22	Y22	Z22	X23	Y23	Z23	X24	Y24	Z24	X25	Y25	Z25	X26	Y26	Z26	X27	Y27	Z27	X28	Y28	Z28	X29	Y29	Z29	X30	Y30	Z30	X31	Y31	Z31	X32	Y32	Z32	X33	Y33	Z33	X34	Y34	Z34	X35	Y35	Z35	X36	Y36	Z36	X37	Y37	Z37	X38	Y38	Z38	X39	Y39	Z39	X40	Y40	Z40	X41	Y41	Z41	X42	Y42	Z42	X43	Y43	Z43	X44	Y44	Z44	X45	Y45	Z45	X46	Y46	Z46	X47	Y47	Z47	X48	Y48	Z48
																																																																																																																																																	
177	1.76	869.43451	1625.53564	-1468.43469	823.02386	1621.59753	-1344.16211	747.07947	1587.7865	-1511.54456	706.14575	1583.22144	-1387.82251	693.68939	1417.40564	-1459.57056	678.10748	1101.03259	-1456.6394	817.56415	1348.09497	-1441.67578	872.95673	1187.34314	-1440.99585	640.1106	1236.66187	-1367.39966	787.39532	1382.80994	-1602.61548	799.52875	1187.90894	-1680.76953	817.78247	1066.49072	-1696.42529	852.03381	940.39893	-1696.2998	869.52826	821.49463	-1669.61719	859.7251	829.90851	-1724.02698	883.33856	750.18646	-1718.54175	750.25629	1368.08118	-1288.93127	763.3197	1145.45166	-1218.40088	789.93805	1035.43164	-1207.31323	825.79474	903.33319	-1208.08533	873.23639	816.09253	-1245.03687	839.95441	803.823	-1203.78638	875.3479	739.48834	-1213.61572	861.95752	950.39264	-1559.03247	843.09961	944.59985	-1321.12817	696.30078	967.6424	-1520.62854	684.06201	964.88141	-1372.52734	798.81604	646.93231	-1599.50525	785.26068	471.03229	-1559.6012	711.49438	285.00946	-1565.02612	668.84003	77.39599	-1523.62024	624.10028	45.41732	-1489.15857	817.33075	35.26328	-1484.27429	860.41162	649.95923	-1281.05664	941.86823	488.89197	-1306.35217	862.83698	312.87717	-1311.85535	780.46332	115.93777	-1363.4823	731.38531	95.95557	-1419.56177	900.91479	46.69375	-1372.30713	NaN	NaN	NaN	NaN	NaN	NaN	NaN	NaN	NaN	NaN	NaN	NaN	NaN	NaN	NaN	NaN	NaN	NaN	NaN	NaN	NaN	NaN	NaN	NaN	NaN	NaN	NaN
178	1.77	882.13635	1624.85498	-1467.9165	835.45251	1620.67236	-1343.78442	759.92206	1587.14136	-1511.39807	718.64636	1582.37756	-1387.71973	706.18475	1416.59814	-1459.28528	691.24286	1099.83142	-1456.02246	830.2641	1347.39429	-1441.82031	885.703	1186.58496	-1441.56665	652.78345	1235.56287	-1367.79248	799.71075	1382.25781	-1602.68188	814.45441	1187.88879	-1681.27063	835.72467	1066.96228	-1696.98889	874.22614	942.13464	-1696.06616	896.11688	824.18274	-1668.39502	885.56128	831.63684	-1722.72095	911.45178	752.60077	-1716.52429	762.76318	1366.94299	-1288.94617	773.54413	1144.02551	-1218.6167	798.47223	1033.66492	-1207.39343	832.0769	900.91345	-1207.94543	877.87427	812.63806	-1244.46167	843.91418	801.04919	-1203.44604	878.19714	735.97552	-1212.99158	874.17609	949.81543	-1560.0304	857.24634	943.79651	-1321.6637	708.38483	966.96741	-1519.62439	698.54791	963.5379	-1371.82825	806.33801	646.48956	-1599.42834	789.59595	470.57153	-1559.97192	713.61609	285.82343	-1564.98291	669.11487	78.37667	-1523.14954	624.33691	46.81669	-1488.88843	817.40277	35.03016	-1484.38074	877.10352	650.62848	-1280.3136	959.96826	490.02728	-1307.69519	891.08258	309.76398	-1311.97705	821.81213	107.48759	-1363.72534	774.18384	83.76365	-1419.54028	946.66321	46.36266	-1372.36877	NaN	NaN	NaN	NaN	NaN	NaN	NaN	NaN	NaN	NaN	NaN	NaN	NaN	NaN	NaN	NaN	NaN	NaN	NaN	NaN	NaN	NaN	NaN	NaN	NaN	NaN	NaN
179	1.78	894.79041	1623.96155	-1467.38611	847.74176	1619.55017	-1343.32813	772.81458	1586.23987	-1511.08997	731.1582	1581.24548	-1387.67993	718.70966	1415.63635	-1459.31946	703.91388	1098.8822	-1455.53699	842.87317	1346.34277	-1441.91357	898.50305	1185.57178	-1442.13574	665.62427	1234.38928	-1368.08447	812.06726	1381.4436	-1602.63684	829.39313	1187.66003	-1681.73376	853.57062	1067.32275	-1697.40662	896.27887	943.8432	-1695.78369	922.54895	827.07013	-1667.08008	911.31018	833.60339	-1721.28088	939.4082	755.09363	-1714.22046	775.42847	1365.53052	-1288.85645	783.77667	1142.44177	-1218.90027	807.14221	1031.81201	-1207.41309	838.23804	898.34991	-1207.70374	882.52997	809.16321	-1243.82544	847.97174	798.23846	-1203.05432	881.07288	732.43793	-1212.40918	884.35309	947.85577	-1561.18591	871.3858	942.95752	-1322.323	720.2467	966.01807	-1518.59656	712.09778	962.39526	-1370.8468	813.82019	645.95459	-1599.33081	794.45642	470.03976	-1560.37683	715.96912	286.50174	-1564.92566	669.38165	79.21011	-1522.93579	624.46649	48.09222	-1488.43164	817.52582	34.76934	-1484.43335	893.44739	651.03375	-1279.63867	977.48633	491.04208	-1308.65161	918.81854	306.69855	-1312.37463	863.73126	99.84267	-1363.92786	817.57556	73.71996	-1418.81238	992.29108	46.5918	-1372.46594	NaN	NaN	NaN	NaN	NaN	NaN	NaN	NaN	NaN	NaN	NaN	NaN	NaN	NaN	NaN	NaN	NaN	NaN	NaN	NaN	NaN	NaN	NaN	NaN	NaN	NaN	NaN
180	1.79	907.85529	1623.10022	-1467.02332	860.10797	1618.22412	-1342.90393	785.39478	1585.0658	-1510.97363	743.58319	1579.91772	-1387.5116	731.47766	1414.32031	-1459.19165	716.54547	1097.84375	-1455.01563	855.49432	1345.14917	-1441.94885	911.41705	1184.48303	-1442.80371	678.46674	1232.88489	-1368.29688	824.38556	1380.396	-1602.60327	844.47595	1187.26367	-1682.0321	871.3847	1067.50378	-1697.72949	918.20068	945.62225	-1695.33435	948.86115	830.1795	-1665.59265	936.82428	835.58594	-1719.65198	967.1662	757.76416	-1711.70728	788.11517	1364.05176	-1288.81787	794.09149	1140.7771	-1219.03455	815.7995	1029.73315	-1207.45691	844.47357	895.77771	-1207.43567	887.8551	805.93744	-1242.92712	852.10156	795.41168	-1202.6853	883.93677	728.97528	-1211.75269	896.1106	946.64532	-1562.17407	886.60944	942.40063	-1323.17358	732.6048	964.86755	-1517.2179	725.98993	961.13275	-1369.63965	821.46124	645.28198	-1599.32104	799.80981	469.41183	-1560.58557	718.70538	287.08005	-1564.77539	669.836	80.22039	-1522.83618	624.80884	49.42901	-1487.94836	817.70599	34.68511	-1484.54382	910.56964	651.07776	-1278.63843	994.2807	491.44263	-1309.49121	946.22351	303.66599	-1313.00476	906.00421	93.38686	-1363.98193	862.30084	64.49237	-1419.92688	1037.93604	47.30886	-1372.65161	NaN	NaN	NaN	NaN	NaN	NaN	NaN	NaN	NaN	NaN	NaN	NaN	NaN	NaN	NaN	NaN	NaN	NaN	NaN	NaN	NaN	NaN	NaN	NaN	NaN	NaN	NaN
181	1.8	920.40216	1621.84985	-1466.4436	872.42139	1616.68921	-1342.47168	798.19977	1583.76855	-1510.58777	756.04059	1578.39673	-1387.44104	744.18018	1412.73071	-1458.81018	729.53015	1096.44275	-1454.08594	868.30908	1343.77051	-1442.00964	924.46265	1183.20544	-1443.51941	691.57208	1231.13	-1368.29468	836.71484	1379.18005	-1602.50366	859.68817	1186.72266	-1682.15173	889.31927	1067.66431	-1697.92688	940.78931	947.84631	-1694.97314	974.96588	833.46875	-1663.95996	962.75629	838.03833	-1718.08508	995.03705	760.86884	-1709.08643	800.8335	1362.43469	-1288.75366	804.55383	1139.01135	-1219.05835	824.44354	1027.64734	-1207.44312	850.5683	893.19818	-1207.06897	891.88165	802.20563	-1242.45703	856.44739	792.68176	-1202.13184	886.98022	725.56171	-1211.09937	907.58386	945.0495	-1563.05823	901.02533	941.0343	-1323.77771	744.45465	963.79926	-1516.04883	740.06702	959.80426	-1368.36206	829.1405	644.53107	-1599.22375	805.6134	468.77304	-1560.62085	721.72699	287.64267	-1564.59424	670.3725	81.03246	-1522.58496	625.12164	50.92702	-1487.32385	817.93372	34.60982	-1484.66077	927.12274	650.46057	-1277.89429	1010.49457	491.24072	-1310.22729	973.53748	300.95786	-1313.09546	948.53961	88.19289	-1364.00464	906.77209	57.36499	-1419.9176	1083.31287	48.56061	-1372.91675	NaN	NaN	NaN	NaN	NaN	NaN	NaN	NaN	NaN	NaN	NaN	NaN	NaN	NaN	NaN	NaN	NaN	NaN	NaN	NaN	NaN	NaN	NaN	NaN	NaN	NaN	NaN
